<?xml version="1.0" encoding="UTF-8" standalone="no"?> <svg id="Icon_flash" data-name="Icon/flash" xmlns="http://www.w3.org/2000/svg" xmlns:xlink="http://www.w3.org/1999/xlink" width="24" height="24" viewBox="0 0 24 24">
  <defs>
    <clipPath id="clip-path">
      <path id="_Icon_小olor" data-name=" Icon 小olor" d="M7.111,22a1,1,0,0,1-.994-1.107L6.886,13.8H1a1,1,0,0,1-.831-1.556L8.058.445a1,1,0,0,1,1.825.663L9.114,8.2H15a1,1,0,0,1,.831,1.556l-7.889,11.8A1,1,0,0,1,7.111,22ZM7.455,4.944,2.871,11.8H8a1,1,0,0,1,.994,1.107l-.449,4.15L13.129,10.2H8a1,1,0,0,1-.994-1.107l.449-4.149Z" transform="translate(4 1)"/>
    </clipPath>
  </defs>
  <g id="Group_22" data-name="Group 22">
    <path id="_Icon_小olor-2" data-name=" Icon 小olor" d="M7.111,22a1,1,0,0,1-.994-1.107L6.886,13.8H1a1,1,0,0,1-.831-1.556L8.058.445a1,1,0,0,1,1.825.663L9.114,8.2H15a1,1,0,0,1,.831,1.556l-7.889,11.8A1,1,0,0,1,7.111,22ZM7.455,4.944,2.871,11.8H8a1,1,0,0,1,.994,1.107l-.449,4.15L13.129,10.2H8a1,1,0,0,1-.994-1.107l.449-4.149Z" transform="translate(4 1)"/>
  </g>
</svg>
