<?xml version="1.0" encoding="UTF-8" standalone="no"?> <svg id="Icon_flash-off" data-name="Icon/flash-off" xmlns="http://www.w3.org/2000/svg" xmlns:xlink="http://www.w3.org/1999/xlink" width="24" height="24" viewBox="0 0 24 24">
  <defs>
    <clipPath id="clip-path">
      <path id="_Icon_小olor" data-name=" Icon 小olor" d="M7.77,21.94a1,1,0,0,1-.652-1.048L7.886,13.8H2a1,1,0,0,1-.831-1.555L3.672,8.5,5.113,9.942,3.871,11.8h3.1l2.835,2.836-.262,2.421,1.075-1.608,1.442,1.442L8.942,21.556a1,1,0,0,1-1.173.384Zm8.524-2.233-16-16A1,1,0,0,1,1.707,2.293l16,16a1,1,0,1,1-1.414,1.414Zm-3.406-7.648L14.129,10.2h-3.1L8.194,7.365l.262-2.421L7.38,6.552,5.938,5.111,9.059.445a1,1,0,0,1,1.825.663L10.114,8.2H16a1,1,0,0,1,.831,1.555l-2.5,3.745Z" transform="translate(3 1)"/>
    </clipPath>
  </defs>
  <g id="Group_98" data-name="Group 98">
    <path id="_Icon_小olor-2" data-name=" Icon 小olor" d="M7.77,21.94a1,1,0,0,1-.652-1.048L7.886,13.8H2a1,1,0,0,1-.831-1.555L3.672,8.5,5.113,9.942,3.871,11.8h3.1l2.835,2.836-.262,2.421,1.075-1.608,1.442,1.442L8.942,21.556a1,1,0,0,1-1.173.384Zm8.524-2.233-16-16A1,1,0,0,1,1.707,2.293l16,16a1,1,0,1,1-1.414,1.414Zm-3.406-7.648L14.129,10.2h-3.1L8.194,7.365l.262-2.421L7.38,6.552,5.938,5.111,9.059.445a1,1,0,0,1,1.825.663L10.114,8.2H16a1,1,0,0,1,.831,1.555l-2.5,3.745Z" transform="translate(3 1)"/>
  </g>
</svg>
